<svg id="visual" viewBox="0 0 900 600" width="900" height="600" xmlns="http://www.w3.org/2000/svg" xmlns:xlink="http://www.w3.org/1999/xlink" version="1.1"><path d="M0 97L82 103L164 43L245 85L327 103L409 61L491 91L573 121L655 121L736 97L818 109L900 43L900 0L818 0L736 0L655 0L573 0L491 0L409 0L327 0L245 0L164 0L82 0L0 0Z" fill="#c7cc00"></path><path d="M0 199L82 217L164 175L245 187L327 337L409 337L491 235L573 211L655 373L736 253L818 247L900 187L900 41L818 107L736 95L655 119L573 119L491 89L409 59L327 101L245 83L164 41L82 101L0 95Z" fill="#88c03a"></path><path d="M0 277L82 259L164 217L245 241L327 415L409 385L491 307L573 301L655 409L736 355L818 331L900 247L900 185L818 245L736 251L655 371L573 209L491 233L409 335L327 335L245 185L164 173L82 215L0 197Z" fill="#51ae58"></path><path d="M0 427L82 379L164 355L245 367L327 523L409 469L491 409L573 433L655 505L736 481L818 439L900 337L900 245L818 329L736 353L655 407L573 299L491 305L409 383L327 413L245 239L164 215L82 257L0 275Z" fill="#1f9a6c"></path><path d="M0 601L82 601L164 601L245 601L327 601L409 601L491 601L573 601L655 601L736 601L818 601L900 601L900 335L818 437L736 479L655 503L573 431L491 407L409 467L327 521L245 365L164 353L82 377L0 425Z" fill="#038373"></path></svg>